<svg width="52" height="64" viewBox="0 0 52 64" fill="none" xmlns="http://www.w3.org/2000/svg">
<path d="M51.3435 52.7772L48.4854 16.7628C48.3073 14.4425 46.345 12.6249 44.018 12.6249H38.3726V12.3711C38.3726 5.54963 32.823 0 26.0015 0C19.18 0 13.6304 5.54963 13.6304 12.3711V12.6249H7.98515C5.65802 12.6249 3.69565 14.4424 3.51815 16.7579L0.659147 52.7821C0.437897 55.6665 1.43852 58.5381 3.40427 60.6604C5.37002 62.7826 8.15665 64 11.0495 64H40.9534C43.8461 64 46.6329 62.7827 48.5988 60.6604C50.5645 58.538 51.565 55.6665 51.3435 52.7772ZM17.3791 12.3711C17.3791 7.61675 21.2473 3.74875 26.0015 3.74875C30.7558 3.74875 34.6239 7.61688 34.6239 12.3711V12.6249H17.3791V12.3711ZM45.8484 58.1131C44.5711 59.4919 42.8329 60.2513 40.9534 60.2513H11.0496C9.17015 60.2513 7.4319 59.4919 6.15465 58.1131C4.87752 56.7342 4.25327 54.9427 4.39677 53.0737L7.25552 17.0494C7.28452 16.6704 7.60502 16.3736 7.98515 16.3736H13.6304V20.9905C13.6304 22.0256 14.4696 22.8649 15.5048 22.8649C16.5399 22.8649 17.3791 22.0256 17.3791 20.9905V16.3736H34.6239V20.9905C34.6239 22.0256 35.4631 22.8649 36.4983 22.8649C37.5334 22.8649 38.3726 22.0256 38.3726 20.9905V16.3736H44.018C44.398 16.3736 44.7185 16.6705 44.748 17.0544L47.6061 53.0687C47.7499 54.9427 47.1255 56.7341 45.8484 58.1131Z" fill="white"/>
<path d="M34.4439 31.7856C33.7121 31.0536 32.5252 31.0536 31.7934 31.7856L23.4239 40.1551L20.2056 36.9369C19.4737 36.2049 18.2869 36.2049 17.5549 36.9369C16.8229 37.6689 16.8229 38.8556 17.5549 39.5876L22.0985 44.1313C22.4645 44.4973 22.9442 44.6804 23.4237 44.6804C23.9032 44.6804 24.3831 44.4974 24.749 44.1313L34.4437 34.4365C35.1759 33.7044 35.1759 32.5176 34.4439 31.7856Z" fill="white"/>
</svg>
