<svg width="65" height="64" viewBox="0 0 65 64" fill="none" xmlns="http://www.w3.org/2000/svg">
<path d="M51.0883 39.6457C49.7781 38.2814 48.1977 37.552 46.5227 37.552C44.8613 37.552 43.2674 38.2679 41.9031 39.6322L37.6347 43.8871C37.2835 43.698 36.9323 43.5224 36.5946 43.3468C36.1083 43.1036 35.6491 42.874 35.2574 42.6309C31.2591 40.0914 27.6255 36.7821 24.1406 32.5001C22.4521 30.3659 21.3175 28.5694 20.4935 26.7459C21.6011 25.7328 22.6277 24.6792 23.6273 23.6661C24.0055 23.2879 24.3837 22.8962 24.7619 22.518C27.5985 19.6814 27.5985 16.0073 24.7619 13.1707L21.0743 9.48311C20.6556 9.06438 20.2234 8.63213 19.8181 8.19989C19.0077 7.36241 18.1567 6.49792 17.2787 5.68747C15.9685 4.39073 14.4016 3.70184 12.7536 3.70184C11.1057 3.70184 9.5118 4.39073 8.16104 5.68747C8.14753 5.70097 8.14753 5.70097 8.13402 5.71448L3.54143 10.3476C1.81245 12.0766 0.826392 14.1838 0.610269 16.6287C0.286086 20.5729 1.44774 24.247 2.33925 26.6513C4.52748 32.5542 7.79633 38.0248 12.6726 43.8871C18.5889 50.9516 25.7075 56.5302 33.8391 60.4609C36.9458 61.9333 41.0927 63.6758 45.7258 63.9729C46.0094 63.9864 46.3066 63.9999 46.5768 63.9999C49.697 63.9999 52.3175 62.8788 54.3707 60.6501C54.3842 60.623 54.4112 60.6095 54.4247 60.5825C55.1271 59.7315 55.9376 58.9616 56.7885 58.1376C57.3694 57.5838 57.9637 57.003 58.5445 56.3951C59.8818 55.0039 60.5842 53.3829 60.5842 51.7215C60.5842 50.0466 59.8683 48.4391 58.504 47.0884L51.0883 39.6457ZM55.9241 53.8692C55.9105 53.8692 55.9105 53.8827 55.9241 53.8692C55.3973 54.4365 54.8569 54.9498 54.2761 55.5171C53.3981 56.3546 52.5066 57.2326 51.6691 58.2187C50.3049 59.6775 48.6975 60.3664 46.5903 60.3664C46.3877 60.3664 46.1715 60.3664 45.9689 60.3529C41.9572 60.0962 38.229 58.5294 35.433 57.1921C27.7876 53.491 21.0743 48.2365 15.4957 41.5773C10.8896 36.0256 7.80984 30.8927 5.77019 25.3816C4.51398 22.0182 4.05472 19.3977 4.25733 16.9258C4.39241 15.3454 5.00025 14.0352 6.12139 12.9141L10.7275 8.30795C11.3894 7.6866 12.0918 7.34891 12.7807 7.34891C13.6316 7.34891 14.3205 7.8622 14.7528 8.29444C14.7663 8.30795 14.7798 8.32146 14.7933 8.33496C15.6173 9.1049 16.4007 9.90185 17.2247 10.7528C17.6434 11.1851 18.0756 11.6173 18.5079 12.0631L22.1955 15.7507C23.6273 17.1825 23.6273 18.5062 22.1955 19.938C21.8038 20.3297 21.4255 20.7215 21.0338 21.0997C19.8992 22.2613 18.8186 23.3419 17.6434 24.3955C17.6164 24.4226 17.5894 24.4361 17.5759 24.4631C16.4142 25.6247 16.6303 26.7594 16.8735 27.5293C16.887 27.5698 16.9005 27.6104 16.914 27.6509C17.873 29.9742 19.2238 32.1624 21.277 34.7694L21.2905 34.7829C25.0186 39.3755 28.9493 42.955 33.2852 45.6971C33.8391 46.0483 34.4064 46.332 34.9467 46.6021C35.433 46.8452 35.8922 47.0749 36.2839 47.318C36.338 47.345 36.392 47.3855 36.446 47.4126C36.9053 47.6422 37.3375 47.7503 37.7833 47.7503C38.9044 47.7503 39.6068 47.0479 39.8365 46.8182L44.4561 42.1986C44.9153 41.7394 45.6447 41.1855 46.4957 41.1855C47.3332 41.1855 48.0221 41.7123 48.4408 42.1716C48.4543 42.1851 48.4543 42.1851 48.4678 42.1986L55.9105 49.6413C57.3018 51.0191 57.3018 52.4374 55.9241 53.8692Z" fill="white"/>
<path d="M35.0948 15.2239C38.6338 15.8182 41.8486 17.4931 44.415 20.0596C46.9815 22.626 48.6429 25.8409 49.2508 29.3799C49.3994 30.2714 50.1693 30.8927 51.0473 30.8927C51.1554 30.8927 51.2499 30.8792 51.358 30.8657C52.3575 30.7036 53.0194 29.7581 52.8573 28.7585C52.1279 24.4766 50.1018 20.5729 47.0085 17.4796C43.9153 14.3864 40.0115 12.3602 35.7296 11.6308C34.73 11.4687 33.798 12.1306 33.6224 13.1167C33.4468 14.1027 34.0952 15.0618 35.0948 15.2239Z" fill="white"/>
<path d="M64.4314 28.2318C63.2292 21.1808 59.9063 14.7646 54.8005 9.65875C49.6946 4.55286 43.2784 1.22998 36.2275 0.0278007C35.2414 -0.147799 34.3094 0.527583 34.1338 1.51364C33.9717 2.51321 34.6336 3.44523 35.6331 3.62083C41.9277 4.68794 47.6684 7.67312 52.234 12.2252C56.7996 16.7908 59.7713 22.5315 60.8384 28.8261C60.987 29.7176 61.7569 30.3389 62.6349 30.3389C62.7429 30.3389 62.8375 30.3254 62.9456 30.3119C63.9316 30.1633 64.607 29.2178 64.4314 28.2318Z" fill="white"/>
</svg>
