<svg width="64" height="64" viewBox="0 0 64 64" fill="none" xmlns="http://www.w3.org/2000/svg">
<path d="M63.4324 60.7361L47.8794 45.1831C52.0514 40.3867 54.5774 34.1286 54.5774 27.2887C54.5774 12.2324 42.3308 0 27.2887 0C12.2324 0 0 12.2466 0 27.2887C0 42.3308 12.2466 54.5774 27.2887 54.5774C34.1286 54.5774 40.3867 52.0514 45.1832 47.8794L60.7361 63.4324C61.1051 63.8013 61.6018 64 62.0843 64C62.5667 64 63.0634 63.8155 63.4324 63.4324C64.1703 62.6945 64.1703 61.4741 63.4324 60.7361ZM3.8173 27.2887C3.8173 14.3468 14.3468 3.83149 27.2745 3.83149C40.2164 3.83149 50.7317 14.361 50.7317 27.2887C50.7317 40.2164 40.2164 50.7601 27.2745 50.7601C14.3468 50.7601 3.8173 40.2306 3.8173 27.2887Z" fill="white"/>
</svg>
