<svg width="64" height="56" viewBox="0 0 64 56" fill="none" xmlns="http://www.w3.org/2000/svg">
<mask id="path-1-inside-1" fill="white">
<path d="M5.12731 23.8865C5.46041 24.0197 5.84671 24.0197 6.1798 23.8599L16.5844 19.1305C17.2505 18.8107 17.5302 18.0114 17.2105 17.3454C16.9041 16.7059 16.1448 16.4128 15.4919 16.7059L8.20471 20.0231C11.6818 9.6185 21.367 2.66438 32.5176 2.66438C44.2011 2.66438 54.4191 10.4712 57.3632 21.6483C57.5497 22.3544 58.2824 22.7808 58.9885 22.5942C59.6945 22.4077 60.1209 21.6749 59.9343 20.9689C56.6837 8.63271 45.4132 0 32.5174 0C20.2212 0 9.52348 7.67352 5.66011 19.1572L2.59608 11.497C2.36964 10.8043 1.61028 10.418 0.917493 10.6444C0.224703 10.8708 -0.161596 11.6302 0.0648381 12.323C0.0782018 12.3763 0.104804 12.4295 0.131407 12.4828L4.38119 23.1405C4.51446 23.4736 4.78086 23.7533 5.12731 23.8865Z"/>
</mask>
<path d="M5.12731 23.8865C5.46041 24.0197 5.84671 24.0197 6.1798 23.8599L16.5844 19.1305C17.2505 18.8107 17.5302 18.0114 17.2105 17.3454C16.9041 16.7059 16.1448 16.4128 15.4919 16.7059L8.20471 20.0231C11.6818 9.6185 21.367 2.66438 32.5176 2.66438C44.2011 2.66438 54.4191 10.4712 57.3632 21.6483C57.5497 22.3544 58.2824 22.7808 58.9885 22.5942C59.6945 22.4077 60.1209 21.6749 59.9343 20.9689C56.6837 8.63271 45.4132 0 32.5174 0C20.2212 0 9.52348 7.67352 5.66011 19.1572L2.59608 11.497C2.36964 10.8043 1.61028 10.418 0.917493 10.6444C0.224703 10.8708 -0.161596 11.6302 0.0648381 12.323C0.0782018 12.3763 0.104804 12.4295 0.131407 12.4828L4.38119 23.1405C4.51446 23.4736 4.78086 23.7533 5.12731 23.8865Z" fill="white"/>
<path d="M5.12731 23.8865L7.35602 18.3157L7.31789 18.3005L7.27956 18.2858L5.12731 23.8865ZM6.1798 23.8599L3.69697 18.3977L3.64005 18.4235L3.58368 18.4506L6.1798 23.8599ZM16.5844 19.1305L19.0672 24.5927L19.1243 24.5667L19.1809 24.5395L16.5844 19.1305ZM17.2105 17.3454L11.7994 19.9378L11.8014 19.9419L17.2105 17.3454ZM15.4919 16.7059L13.0342 11.2323L13.0202 11.2387L13.0061 11.2451L15.4919 16.7059ZM8.20471 20.0231L2.51407 18.1214L-1.85484 31.1947L10.6905 25.4839L8.20471 20.0231ZM57.3632 21.6483L51.5611 23.1767L51.5621 23.1805L57.3632 21.6483ZM58.9885 22.5942L57.4563 16.7931L57.4554 16.7933L58.9885 22.5942ZM59.9343 20.9689L54.1323 22.4978L54.1334 22.502L59.9343 20.9689ZM5.66011 19.1572L0.0892466 21.3855L6.14643 36.5286L11.3469 21.0704L5.66011 19.1572ZM2.59608 11.497L-3.10703 13.3611L-3.0468 13.5454L-2.97479 13.7254L2.59608 11.497ZM0.0648381 12.323L5.88489 10.8646L5.83356 10.6597L5.76794 10.4589L0.0648381 12.323ZM0.131407 12.4828L5.70466 10.2605L5.61207 10.0283L5.50048 9.80459L0.131407 12.4828ZM4.38119 23.1405L-1.19206 25.3628L-1.18952 25.3692L4.38119 23.1405ZM2.89861 29.4572C4.66819 30.1651 6.81223 30.2116 8.77592 29.2691L3.58368 18.4506C4.88118 17.8279 6.25263 17.8743 7.35602 18.3157L2.89861 29.4572ZM8.66263 29.322L19.0672 24.5927L14.1016 13.6683L3.69697 18.3977L8.66263 29.322ZM19.1809 24.5395C22.8418 22.7822 24.3697 18.3948 22.6196 14.7488L11.8014 19.9419C10.6907 17.628 11.6591 14.8393 13.9879 13.7214L19.1809 24.5395ZM22.6215 14.7529C20.9519 11.2681 16.7483 9.56466 13.0342 11.2323L17.9496 22.1794C15.5412 23.2609 12.8563 22.1437 11.7995 19.9378L22.6215 14.7529ZM13.0061 11.2451L5.7189 14.5623L10.6905 25.4839L17.9778 22.1667L13.0061 11.2451ZM13.8954 21.9248C16.544 13.9992 23.9149 8.66438 32.5176 8.66438V-3.33562C18.819 -3.33562 6.81956 5.23785 2.51407 18.1214L13.8954 21.9248ZM32.5176 8.66438C41.5183 8.66438 49.3218 14.6754 51.5611 23.1767L63.1653 20.12C59.5163 6.26691 46.8838 -3.33562 32.5176 -3.33562V8.66438ZM51.5621 23.1805C52.5951 27.0915 56.6122 29.4282 60.5215 28.395L57.4554 16.7933C59.9527 16.1333 62.5043 17.6173 63.1643 20.1162L51.5621 23.1805ZM60.5206 28.3953C64.4316 27.3623 66.7683 23.3452 65.7351 19.4359L54.1334 22.502C53.4735 20.0047 54.9574 17.4531 57.4563 16.7931L60.5206 28.3953ZM65.7362 19.4401C61.7824 4.43532 48.1032 -6 32.5174 -6V6C42.7232 6 51.5849 12.8301 54.1323 22.4978L65.7362 19.4401ZM32.5174 -6C17.6722 -6 4.66693 3.29244 -0.0266952 17.244L11.3469 21.0704C14.38 12.0546 22.7702 6 32.5174 6V-6ZM11.231 16.9289L8.16694 9.26871L-2.97479 13.7254L0.0892466 21.3855L11.231 16.9289ZM8.29918 9.63302C7.04568 5.79784 2.90334 3.68298 -0.946529 4.94128L2.78152 16.3475C0.317222 17.1529 -2.3064 15.8107 -3.10703 13.3611L8.29918 9.63302ZM-0.946529 4.94128C-4.78171 6.19478 -6.89657 10.3371 -5.63827 14.187L5.76794 10.4589C6.57338 12.9232 5.23111 15.5469 2.78152 16.3475L-0.946529 4.94128ZM-5.75521 13.7814C-5.63884 14.2458 -5.49221 14.6056 -5.40423 14.8068C-5.35776 14.9131 -5.31651 15 -5.28957 15.0556C-5.26438 15.1077 -5.24089 15.1546 -5.23767 15.1611L5.50048 9.80459C5.47339 9.75028 5.53065 9.86204 5.59054 9.999C5.65523 10.1469 5.78188 10.4535 5.88489 10.8646L-5.75521 13.7814ZM-5.44184 14.7052L-1.19206 25.3628L9.95444 20.9181L5.70466 10.2605L-5.44184 14.7052ZM-1.18952 25.3692C-0.479723 27.1433 0.962399 28.7137 2.97506 29.4872L7.27956 18.2858C8.59931 18.7929 9.50863 19.8038 9.95191 20.9118L-1.18952 25.3692Z" fill="white" mask="url(#path-1-inside-1)"/>
<path d="M62.0892 42.4372L62.0887 42.4374L62.0892 42.4372ZM6.64619 34.3044L6.64611 34.3045L6.64619 34.3044Z" fill="white" stroke="white" stroke-width="6"/>
</svg>
