<svg version="1" xmlns="http://www.w3.org/2000/svg" width="596" height="596" viewBox="0 0 447.000000 447.000000"><path d="M206.3 1.4C195.4 5 186.8 13.7 184 24c-.9 3.2-1.2 29.2-1.2 95v90.7l3 6.5c3.3 7.4 8.5 12.9 15.7 16.6 4.5 2.4 6 2.7 15.5 2.6 9.3 0 11-.3 15.5-2.6 6.7-3.6 11.9-8.8 15.2-15.6l2.8-5.7v-187l-2.7-5.6C242 7.2 232.3 1 218.7.4c-5.2-.3-9.7.1-12.4 1z"/><path d="M99.3 90.1c-2.4.4-5.8 1.5-7.7 2.4-4 1.9-19.6 17.4-26.1 26-2.5 3.3-5.3 6.9-6.3 8-3.6 4.3-12.7 19.6-17.7 29.6-8.7 17.5-16.2 42-19 61.9-1 7.7-1.4 39.1-.5 46.5 3.3 27.6 9.5 49.7 20 71 15.3 31.4 39.3 58.8 68.5 78.3 20.6 13.7 50.5 25.4 76.5 29.8 1.4.3 3 .6 3.7.9 7.2 2.5 57 2.6 64.5 0 .7-.2 3.1-.7 5.3-1 16.3-2.4 39.5-10.3 57-19.6 49.9-26.4 85.7-70.8 101.1-125.2 1.4-5.1 2.8-10.1 3-11.2.2-1.1.6-3.1.9-4.5 2.4-12.2 3-20.5 2.9-40.5 0-16.5-.6-22.9-3-36-.5-2.5-1.8-8.8-1.9-9.5-.1-.3-.5-1.9-.9-3.5-8.2-32.5-27-65.7-50.9-89.8-5.7-5.8-8.5-7.8-12.6-9.2-14.3-4.7-29.5 1.6-35.1 14.7-1.8 4.1-2.1 6.5-1.8 12.2.5 9.1 2.2 12.4 10.9 21.6 18.8 19.9 33.7 47.8 38.4 71.9 2.2 11.4 3.1 22.4 2.9 33.5-.7 29-8.9 54.3-26.3 80.6-7.1 10.7-25.9 29.8-37 37.5-47.5 33-108.1 35.8-158.2 7.2-23.9-13.6-43.7-34-57.1-58.7-6.4-11.8-13.6-32.3-15.3-43.5-.3-1.7-.9-5.7-1.4-9-1-6.5-.7-31.3.4-38.5.4-2.5 1.3-7.2 2.1-10.5s1.7-7.1 2-8.4c.3-1.4 2.1-6.7 4-11.8 7.5-20.1 19.5-38.5 35.3-54.1 7.8-7.7 10.5-13.4 10.5-22.3 0-11.9-7-22.1-17.4-25.3-6.8-2.2-9.1-2.4-13.7-1.5z"/></svg>