<svg width="15" height="15" viewBox="0 0 15 15" fill="none" xmlns="http://www.w3.org/2000/svg">
<path d="M13.1246 4.09266C13.1201 4.0316 13.069 3.98438 13.0078 3.98438H10.8984V3.39844C10.8984 1.52449 9.37381 0 7.49998 0C5.62616 0 4.10155 1.52449 4.10155 3.39844V3.98438H1.99217C1.931 3.98438 1.87991 4.0316 1.87534 4.09266L1.05502 14.8739C1.05256 14.9064 1.0637 14.9385 1.08596 14.9624C1.10811 14.9864 1.13928 15 1.17186 15H13.8281C13.8607 15 13.8919 14.9864 13.914 14.9625C13.9362 14.9386 13.9474 14.9065 13.9449 14.874L13.1246 4.09266ZM5.03905 3.39844C5.03905 2.04152 6.14295 0.9375 7.49998 0.9375C8.85702 0.9375 9.96092 2.04152 9.96092 3.39844V3.98438H5.03905V3.39844ZM4.5703 7.26562C3.92401 7.26562 3.39842 6.73992 3.39842 6.09375C3.39842 5.62605 3.6328 5.20465 4.10155 5.01973V6.09375C4.10155 6.35227 4.3119 6.5625 4.5703 6.5625C4.8287 6.5625 5.03905 6.35227 5.03905 6.09375V5.02043C5.5078 5.20535 5.74217 5.62992 5.74217 6.09375C5.74217 6.73992 5.21659 7.26562 4.5703 7.26562ZM10.4297 7.26562C9.78338 7.26562 9.2578 6.73992 9.2578 6.09375C9.2578 5.62605 9.49217 5.20465 9.96092 5.01973V6.09375C9.96092 6.35227 10.1713 6.5625 10.4297 6.5625C10.6881 6.5625 10.8984 6.35227 10.8984 6.09375V5.02043C11.3672 5.20535 11.6015 5.62992 11.6015 6.09375C11.6015 6.73992 11.076 7.26562 10.4297 7.26562Z" fill="#008D36"/>
</svg>
