<svg width="24" height="20" viewBox="0 0 24 20" fill="none" xmlns="http://www.w3.org/2000/svg">
<path d="M23.3777 2.14055H8.58616V1.55569C8.58616 0.697876 7.88828 0 7.03047 0H4.6164C3.75859 0 3.06071 0.697876 3.06071 1.55569V2.14055H0.622267C0.278579 2.14055 0 2.41922 0 2.76286C0 3.10651 0.278579 3.38513 0.622267 3.38513H3.06062V3.9698C3.06062 4.82762 3.75849 5.5255 4.61631 5.5255H7.03042C7.88823 5.5255 8.58611 4.82762 8.58611 3.9698V3.38513H23.3777C23.7214 3.38513 24 3.10646 24 2.76286C24 2.41922 23.7214 2.14055 23.3777 2.14055ZM7.34162 3.9698C7.34162 4.14137 7.20203 4.28096 7.03047 4.28096H4.61635C4.44479 4.28096 4.3052 4.14137 4.3052 3.9698V1.55569C4.3052 1.38413 4.44479 1.24453 4.61635 1.24453H7.03047C7.20203 1.24453 7.34162 1.38413 7.34162 1.55569V3.9698Z" fill="#484E52"/>
<path d="M23.3778 9.07146H20.9394V8.48642C20.9394 7.6286 20.2415 6.93073 19.3837 6.93073H16.9696C16.1118 6.93073 15.4139 7.6286 15.4139 8.48642V9.07146H0.622267C0.278579 9.07146 0 9.35009 0 9.69373C0 10.0374 0.278579 10.316 0.622267 10.316H15.4138V10.9005C15.4138 11.7583 16.1117 12.4562 16.9695 12.4562H19.3836C20.2415 12.4562 20.9393 11.7583 20.9393 10.9005V10.316H23.3777C23.7214 10.316 24 10.0373 24 9.69373C24 9.35009 23.7215 9.07146 23.3778 9.07146ZM19.6948 10.9005C19.6948 11.0721 19.5552 11.2117 19.3836 11.2117H16.9695C16.798 11.2117 16.6584 11.0721 16.6584 10.9005V8.48642C16.6584 8.31485 16.798 8.17526 16.9695 8.17526H19.3836C19.5552 8.17526 19.6948 8.31485 19.6948 8.48642V10.9005Z" fill="#484E52"/>
<path d="M23.3778 16.5114H12.9578V15.9267C12.9578 15.0689 12.2599 14.371 11.4021 14.371H8.98797C8.13016 14.371 7.43228 15.0689 7.43228 15.9267V16.5114H0.622267C0.278579 16.5114 0 16.7901 0 17.1337C0 17.4773 0.278579 17.7559 0.622267 17.7559H7.43223V18.3408C7.43223 19.1986 8.13011 19.8965 8.98792 19.8965H11.402C12.2599 19.8965 12.9577 19.1986 12.9577 18.3408V17.7559H23.3777C23.7214 17.7559 24 17.4773 24 17.1337C24 16.79 23.7215 16.5114 23.3778 16.5114ZM11.7132 18.3408C11.7132 18.5124 11.5736 18.652 11.402 18.652H8.98792C8.81636 18.652 8.67677 18.5124 8.67677 18.3408V15.9267C8.67677 15.7552 8.81636 15.6156 8.98792 15.6156H11.402C11.5736 15.6156 11.7132 15.7552 11.7132 15.9267V18.3408Z" fill="#484E52"/>
</svg>
