<svg width="17" height="17" viewBox="0 0 17 17" fill="none" xmlns="http://www.w3.org/2000/svg">
<path d="M12.9247 11.246C12.3692 10.6977 11.6759 10.6977 11.124 11.246C10.703 11.6635 10.282 12.0809 9.86814 12.5054C9.75494 12.6222 9.65942 12.6469 9.52146 12.5691C9.24906 12.4205 8.95897 12.3002 8.69719 12.1375C7.47671 11.3698 6.45434 10.3828 5.5487 9.27203C5.09943 8.72016 4.69967 8.12937 4.4202 7.4643C4.3636 7.32987 4.37421 7.24143 4.48388 7.13176C4.90486 6.72494 5.31522 6.3075 5.72912 5.89006C6.30576 5.30989 6.30576 4.63066 5.72559 4.04695C5.39659 3.71442 5.06759 3.38895 4.73859 3.05642C4.39898 2.71681 4.0629 2.37366 3.71975 2.03758C3.16434 1.49632 2.47097 1.49632 1.9191 2.04112C1.49459 2.45856 1.08776 2.88661 0.656168 3.29698C0.256416 3.6755 0.0547717 4.13893 0.0123202 4.68019C-0.0548947 5.56106 0.1609 6.3924 0.465136 7.20252C1.08776 8.87935 2.03584 10.3687 3.18557 11.7342C4.73859 13.5809 6.5923 15.0419 8.76087 16.0961C9.73725 16.5702 10.749 16.9345 11.8492 16.9947C12.6063 17.0371 13.2643 16.8461 13.7914 16.2553C14.1522 15.852 14.559 15.4841 14.9411 15.0985C15.5071 14.5254 15.5107 13.832 14.9482 13.266C14.276 12.5903 13.6003 11.9182 12.9247 11.246Z" fill="white"/>
<path d="M12.249 8.4265L13.5544 8.20363C13.3492 7.00437 12.7832 5.91832 11.9236 5.05514C11.0144 4.14597 9.86466 3.57288 8.59819 3.396L8.41423 4.70846C9.39415 4.84642 10.2856 5.28863 10.9896 5.99261C11.6547 6.65769 12.0898 7.49964 12.249 8.4265Z" fill="white"/>
<path d="M14.2902 2.75227C12.7831 1.24524 10.8764 0.293623 8.77147 0L8.58751 1.31246C10.4058 1.56717 12.0544 2.39143 13.3562 3.68974C14.5909 4.92437 15.401 6.48447 15.6946 8.20022L17 7.97735C16.6568 5.9892 15.7194 4.18501 14.2902 2.75227Z" fill="white"/>
</svg>
