<svg width="15" height="15" viewBox="0 0 15 15" fill="none" xmlns="http://www.w3.org/2000/svg">
<path d="M11.4041 9.92308C10.914 9.43925 10.3022 9.43925 9.8153 9.92308C9.44385 10.2914 9.0724 10.6597 8.70719 11.0343C8.6073 11.1373 8.52302 11.1592 8.40129 11.0905C8.16094 10.9594 7.90498 10.8533 7.67399 10.7097C6.5971 10.0323 5.695 9.16145 4.89592 8.18132C4.49949 7.69437 4.14677 7.17309 3.90018 6.58626C3.85023 6.46765 3.8596 6.38961 3.95636 6.29285C4.32781 5.93388 4.6899 5.56555 5.05511 5.19722C5.5639 4.68531 5.5639 4.08599 5.05199 3.57096C4.76169 3.27754 4.4714 2.99037 4.18111 2.69695C3.88145 2.3973 3.58491 2.09452 3.28213 1.79798C2.79207 1.3204 2.18027 1.3204 1.69332 1.8011C1.31875 2.16943 0.959787 2.54713 0.578972 2.90921C0.22625 3.24321 0.048328 3.65211 0.0108708 4.12969C-0.0484365 4.90693 0.141971 5.64047 0.410414 6.35528C0.959787 7.83484 1.79633 9.14896 2.8108 10.3538C4.18111 11.9832 5.81674 13.2724 7.73018 14.2026C8.59169 14.6208 9.48442 14.9423 10.4552 14.9954C11.1232 15.0329 11.7038 14.8643 12.1689 14.343C12.4872 13.9872 12.8462 13.6626 13.1833 13.3223C13.6828 12.8166 13.6859 12.2048 13.1896 11.7054C12.5965 11.1092 12.0003 10.5161 11.4041 9.92308Z" fill="#A21713"/>
<path d="M10.808 7.43526L11.9598 7.23861C11.7787 6.18044 11.2793 5.22216 10.5208 4.46053C9.71857 3.65833 8.7041 3.15265 7.58662 2.99658L7.42431 4.15463C8.28895 4.27637 9.07555 4.66655 9.69672 5.28771C10.2835 5.87454 10.6675 6.61745 10.808 7.43526Z" fill="#A21713"/>
<path d="M12.609 2.42848C11.2792 1.09874 9.59677 0.259079 7.73952 0L7.5772 1.15805C9.18162 1.3828 10.6362 2.11009 11.7849 3.25566C12.8743 4.34504 13.5891 5.72159 13.8482 7.23549L15 7.03883C14.6972 5.28459 13.87 3.69266 12.609 2.42848Z" fill="#A21713"/>
</svg>
