<svg width="16" height="16" viewBox="0 0 16 16" fill="none" xmlns="http://www.w3.org/2000/svg">
<g clip-path="url(#clip0)">
<path d="M7.77253 0.00407228C4.59368 0.115611 1.95284 2.5957 1.64775 5.76142C1.58542 6.39456 1.62151 7.00802 1.73304 7.59524C1.73304 7.59524 1.74289 7.66413 1.77569 7.79535C1.87411 8.23494 2.02173 8.66141 2.20544 9.06164C2.84515 10.5772 4.32467 13.1131 7.64458 15.872C7.84798 16.0426 8.14651 16.0426 8.35318 15.872C11.6731 13.1164 13.1526 10.5805 13.7956 9.05836C13.9826 8.65813 14.1269 8.23495 14.2254 7.79207C14.2549 7.66413 14.268 7.59196 14.268 7.59196C14.3435 7.19829 14.3828 6.79479 14.3828 6.38144C14.3828 2.77941 11.4008 -0.123869 7.77253 0.00407228ZM7.99888 9.557C6.28644 9.557 4.89877 8.16933 4.89877 6.45689C4.89877 4.74445 6.28644 3.35678 7.99888 3.35678C9.71133 3.35678 11.099 4.74445 11.099 6.45689C11.099 8.16933 9.71133 9.557 7.99888 9.557Z" fill="white"/>
</g>
<defs>
<clipPath id="clip0">
<rect width="16" height="16" fill="white"/>
</clipPath>
</defs>
</svg>
