<svg width="17" height="17" viewBox="0 0 17 17" fill="none" xmlns="http://www.w3.org/2000/svg">
<path d="M8.5 0C3.8063 0 0 3.8063 0 8.5C0 13.1937 3.8063 17 8.5 17C13.1937 17 17 13.1937 17 8.5C17 3.8063 13.1937 0 8.5 0ZM8.68015 13.449C8.68002 13.449 8.68028 13.449 8.68015 13.449H8.67808C7.8266 13.4486 6.98991 13.2351 6.24686 12.8299L3.55001 13.5371L4.27179 10.9016C3.82653 10.1305 3.59229 9.2555 3.59268 8.35915C3.59385 5.55504 5.87605 3.27375 8.68015 3.27375C10.041 3.27427 11.3184 3.80396 12.2788 4.76517C13.2394 5.7265 13.768 7.0043 13.7675 8.36317C13.7663 11.1674 11.4839 13.449 8.68015 13.449Z" fill="#008D36"/>
<path d="M8.68183 4.13281C6.34944 4.13281 4.45258 6.02889 4.45154 8.3596C4.45128 9.15829 4.67488 9.9361 5.09809 10.6091L5.19861 10.769L4.77138 12.3289L6.37175 11.9092L6.52622 12.0008C7.17537 12.386 7.91958 12.5898 8.67833 12.59H8.68002C11.0106 12.59 12.9075 10.6938 12.9085 8.36297C12.9089 7.23341 12.4695 6.17143 11.6712 5.37248C10.8729 4.57353 9.81113 4.1332 8.68183 4.13281ZM11.169 10.1769C11.063 10.4737 10.5552 10.7446 10.311 10.7812C10.0919 10.8139 9.81489 10.8275 9.51035 10.7309C9.32566 10.6723 9.08896 10.5941 8.78559 10.4632C7.51051 9.91275 6.67771 8.62924 6.61415 8.54442C6.5506 8.45959 6.0951 7.85532 6.0951 7.22978C6.0951 6.60437 6.4235 6.29685 6.53997 6.16975C6.65657 6.04251 6.79431 6.01073 6.879 6.01073C6.9637 6.01073 7.04852 6.01151 7.12258 6.01514C7.20066 6.01904 7.30546 5.98544 7.40857 6.2333C7.51453 6.48777 7.76874 7.11318 7.80052 7.17673C7.8323 7.24042 7.85344 7.31461 7.81116 7.39943C7.76874 7.48425 7.62789 7.66726 7.49339 7.83405C7.43697 7.90396 7.36343 7.96622 7.43762 8.09345C7.51168 8.22056 7.76693 8.63676 8.14474 8.97372C8.63034 9.40666 9.03993 9.54077 9.16704 9.60445C9.29401 9.66801 9.3682 9.65737 9.44239 9.57268C9.51645 9.48785 9.76016 9.20161 9.84485 9.07437C9.92954 8.94714 10.0144 8.96841 10.1308 9.01082C10.2474 9.0531 10.8723 9.36062 10.9994 9.42417C11.1265 9.48785 11.2112 9.51963 11.243 9.57268C11.2749 9.62572 11.2749 9.88007 11.169 10.1769Z" fill="#008D36"/>
</svg>
